HIERARCHY
ROOT Pelvis
{
	OFFSET 0.000000 0.000000 0.000000
	CHANNELS 6 Xposition Yposition Zposition Xrotation Yrotation Zrotation
	JOINT LeftUpLeg_virtual
	{
		OFFSET 0.000000 0.000000 0.000000
		CHANNELS 3 Xrotation Yrotation Zrotation
		JOINT LeftUpLeg
		{
			OFFSET 18.735201 -5.666702 -4.541200
			CHANNELS 3 Xrotation Yrotation Zrotation
			JOINT LeftLeg
			{
				OFFSET -0.021200 -31.938179 0.493100
				CHANNELS 3 Xrotation Yrotation Zrotation
				JOINT LeftFoot
				{
					OFFSET 0.021200 -31.938179 -4.336299
					CHANNELS 3 Xrotation Yrotation Zrotation
					JOINT LeftToeBase
					{
						OFFSET 0.943001 -26.722000 15.023500
						CHANNELS 3 Xrotation Yrotation Zrotation
						End Site
						{
							OFFSET 0 0 0
						}
					}
				}
			}
		}
	}
	JOINT RightUpLeg_virtual
	{
		OFFSET 0.000000 0.000000 0.000000
		CHANNELS 3 Xrotation Yrotation Zrotation
		JOINT RightUpLeg
		{
			OFFSET -18.735201 -5.666702 -4.541200
			CHANNELS 3 Xrotation Yrotation Zrotation
			JOINT RightLeg
			{
				OFFSET 0.018946 -31.938133 0.493100
				CHANNELS 3 Xrotation Yrotation Zrotation
				JOINT RightFoot
				{
					OFFSET -0.018946 -31.938126 -4.336299
					CHANNELS 3 Xrotation Yrotation Zrotation
					JOINT RightToeBase
					{
						OFFSET -0.943001 -26.722004 15.023500
						CHANNELS 3 Xrotation Yrotation Zrotation
						End Site
						{
							OFFSET 0 0 0
						}
					}
				}
			}
		}
	}
	JOINT Hips_virtual
	{
		OFFSET 0.000000 0.000000 0.000000
		CHANNELS 3 Xrotation Yrotation Zrotation
		JOINT Hips
		{
			OFFSET -0.000000 -0.000000 -0.000000
			CHANNELS 3 Xrotation Yrotation Zrotation
			JOINT Spine
			{
				OFFSET 0.000000 10.199997 -0.299500
				CHANNELS 3 Xrotation Yrotation Zrotation
				JOINT Spine1
				{
					OFFSET 0.000000 11.900002 -1.516600
					CHANNELS 3 Xrotation Yrotation Zrotation
					JOINT Spine2
					{
						OFFSET 0.000000 13.600006 -2.842500
						CHANNELS 3 Xrotation Yrotation Zrotation
						JOINT Neck_virtual
						{
							OFFSET 0.000000 0.000000 0.000000
							CHANNELS 3 Xrotation Yrotation Zrotation
							JOINT Neck
							{
								OFFSET 0.000000 9.624100 -2.890100
								CHANNELS 3 Xrotation Yrotation Zrotation
								JOINT Head
								{
									OFFSET 0.000000 14.068802 -1.351900
									CHANNELS 3 Xrotation Yrotation Zrotation
									End Site
									{
										OFFSET 0 0 0
									}
								}
							}
						}
						JOINT LeftShoulder_virtual
						{
							OFFSET 0.000000 0.000000 0.000000
							CHANNELS 3 Xrotation Yrotation Zrotation
							JOINT LeftShoulder
							{
								OFFSET 15.263000 10.923401 -0.547700
								CHANNELS 3 Xrotation Yrotation Zrotation
								JOINT LeftArm
								{
									OFFSET 25.438599 -2.830597 -13.032500
									CHANNELS 3 Xrotation Yrotation Zrotation
									JOINT LeftForeArm
									{
										OFFSET 29.960503 0.000000 0.000000
										CHANNELS 3 Xrotation Yrotation Zrotation
										JOINT LeftHand
										{
											OFFSET 27.849251 0.000000 0.000000
											CHANNELS 3 Xrotation Yrotation Zrotation
											End Site
											{
												OFFSET 0 0 0
											}
										}
									}
								}
							}
						}
						JOINT RightShoulder_virtual
						{
							OFFSET 0.000000 0.000000 0.000000
							CHANNELS 3 Xrotation Yrotation Zrotation
							JOINT RightShoulder
							{
								OFFSET -15.263000 10.923401 -0.547700
								CHANNELS 3 Xrotation Yrotation Zrotation
								JOINT RightArm
								{
									OFFSET -25.438599 -2.830597 -13.032500
									CHANNELS 3 Xrotation Yrotation Zrotation
									JOINT RightForeArm
									{
										OFFSET -29.960503 0.000000 0.000000
										CHANNELS 3 Xrotation Yrotation Zrotation
										JOINT RightHand
										{
											OFFSET -27.849251 0.000000 0.000000
											CHANNELS 3 Xrotation Yrotation Zrotation
											End Site
											{
												OFFSET 0 0 0
											}
										}
									}
								}
							}
						}
					}
				}
			}
		}
	}
}
MOTION
Frames: 6
Frame Time: 0.03333333
-0.385750 92.173767 4.456383 0.000000 0.000000 0.000000 -0.768025 -0.227458 0.512862 -12.692870 2.985453 8.805195 30.566746 3.589187 1.725192 -12.916655 3.483722 -13.046472 0.000000 0.000000 0.000000 -1.138589 0.675606 0.243271 -13.415928 3.167372 -2.962491 29.440485 -2.499295 -2.689270 -17.981644 -2.598398 9.642567 0.000000 0.000000 0.000000 -1.059586 0.036959 0.657032 -0.327932 -0.551002 -1.466521 1.105987 0.314059 1.349708 -2.206586 -0.521800 0.237003 0.000000 0.000000 0.000000 -2.216914 -0.141690 0.096195 0.494402 -0.255156 -0.000002 0.000000 0.000000 0.000000 -2.238554 -0.181921 -0.011119 0.873617 -13.930671 -10.952882 16.194865 -21.646191 -68.995047 0.524981 -20.501723 0.466260 0.000000 0.000000 0.000000 -1.874714 -0.050202 -0.053194 2.185649 8.809200 10.246659 8.356716 25.650531 63.254430 0.825807 18.031501 1.154646 0.000000 0.000000 0.000000 
-0.361472 92.116150 4.644354 0.000000 0.000000 0.000000 -0.779062 -0.456282 0.665654 -12.556307 3.115403 8.640353 30.478643 3.790486 1.709804 -13.412213 3.597650 -12.853865 0.000000 0.000000 0.000000 -1.035317 0.570446 0.276100 -13.529230 3.206016 -3.000609 29.598010 -2.207832 -2.682989 -17.299952 -2.242077 10.111843 0.000000 0.000000 0.000000 -1.105354 -0.165360 0.753663 -0.472136 -0.488469 -1.506898 1.098582 0.349594 1.298669 -2.150295 -0.470883 0.220260 0.000000 0.000000 0.000000 -2.146841 -0.101984 0.072594 0.500241 -0.241847 -0.013681 0.000000 0.000000 0.000000 -2.178202 -0.132468 -0.034479 0.891375 -13.875034 -10.881905 16.073404 -21.674075 -68.977718 0.489161 -20.588623 0.401780 0.000000 0.000000 0.000000 -1.812676 -0.010512 -0.079768 2.151814 8.813377 10.272625 8.533894 25.404163 63.332751 0.860483 17.986075 1.091976 0.000000 0.000000 0.000000 
-0.234759 92.076797 4.812351 0.000000 0.000000 0.000000 -0.711672 -0.774100 0.811802 -12.413857 3.439684 8.364207 30.165875 4.237512 1.667058 -14.041455 3.849618 -12.618925 0.000000 0.000000 0.000000 -0.930784 0.368488 0.301411 -13.807138 3.010133 -3.042067 30.046511 -1.747442 -2.592743 -16.514327 -1.762576 10.377673 0.000000 0.000000 0.000000 -1.139190 -0.438397 0.821216 -0.611060 -0.316183 -1.470382 1.133295 0.429447 1.135213 -2.046825 -0.390056 0.202790 0.000000 0.000000 0.000000 -2.018319 -0.027055 0.034685 0.498505 -0.242961 -0.037204 0.000000 0.000000 0.000000 -2.065396 -0.052388 -0.070408 0.905618 -13.885768 -10.820210 15.707970 -21.777951 -68.923425 0.412193 -20.680863 0.281703 0.000000 0.000000 0.000000 -1.695131 0.066609 -0.106696 2.106164 8.776277 10.305774 8.661540 25.299968 63.285528 0.893112 17.776416 0.985419 0.000000 0.000000 0.000000 
-0.077197 92.054939 4.837557 0.000000 0.000000 0.000000 -0.590254 -1.126672 0.932621 -12.412183 3.800374 8.105344 29.824178 4.869735 1.622881 -14.532238 4.179781 -12.357391 0.000000 0.000000 0.000000 -0.840749 0.080438 0.334749 -14.254791 2.634508 -3.022661 30.633798 -1.261462 -2.514658 -16.055188 -1.369939 10.313667 0.000000 0.000000 0.000000 -1.111359 -0.788488 0.861979 -0.748884 -0.153807 -1.357262 1.255506 0.525099 0.898610 -1.865395 -0.292062 0.187976 0.000000 0.000000 0.000000 -1.829095 0.068614 -0.007243 0.480919 -0.255287 -0.058653 0.000000 0.000000 0.000000 -1.903325 0.046078 -0.117390 0.908247 -13.942967 -10.760758 15.165146 -21.875841 -68.819825 0.328944 -20.845753 0.135967 0.000000 0.000000 0.000000 -1.525904 0.165948 -0.132124 2.073539 8.745962 10.324222 8.700874 25.435846 63.172905 0.925810 17.563838 0.833601 0.000000 0.000000 0.000000 
0.098408 92.049881 4.714033 0.000000 0.000000 0.000000 -0.384194 -1.545436 0.961991 -12.687284 3.968859 7.942768 29.775516 5.566562 1.626345 -14.758038 4.525711 -12.113513 0.000000 0.000000 0.000000 -0.698266 -0.256611 0.348210 -14.769314 2.306810 -2.835912 31.100177 -0.826624 -2.561416 -16.379999 -1.225657 10.000905 0.000000 0.000000 0.000000 -0.967343 -1.199589 0.854580 -0.819753 -0.018321 -1.235371 1.474485 0.595758 0.661069 -1.590460 -0.194094 0.167337 0.000000 0.000000 0.000000 -1.582352 0.168736 -0.055140 0.439395 -0.276005 -0.061416 0.000000 0.000000 0.000000 -1.683901 0.148358 -0.182435 0.900094 -14.053708 -10.724722 14.512272 -21.885132 -68.671453 0.270856 -21.108187 -0.008262 0.000000 0.000000 0.000000 -1.290753 0.269391 -0.162206 2.079215 8.772972 10.312202 8.689274 25.863674 62.992485 0.961048 17.401847 0.644666 0.000000 0.000000 0.000000 
0.258014 92.036957 4.414568 0.000000 0.000000 0.000000 -0.046622 -2.017755 0.855247 -13.264057 3.854169 7.967481 30.208660 6.229466 1.675194 -14.814125 4.806111 -11.982905 0.000000 0.000000 0.000000 -0.459046 -0.737695 0.268488 -15.302569 2.237297 -2.426925 31.229213 -0.456864 -2.748033 -17.075591 -1.302470 9.710278 0.000000 0.000000 0.000000 -0.661475 -1.663955 0.764608 -0.899048 0.075958 -1.218796 1.800703 0.600091 0.486796 -1.199749 -0.114409 0.126007 0.000000 0.000000 0.000000 -1.280888 0.260234 -0.110901 0.370500 -0.302882 -0.027260 0.000000 0.000000 0.000000 -1.412186 0.239703 -0.271564 0.891866 -14.221503 -10.694565 13.805208 -21.758619 -68.484613 0.260150 -21.403974 -0.117597 0.000000 0.000000 0.000000 -0.986646 0.358210 -0.209896 2.130296 8.896029 10.274969 8.598786 26.590056 62.737487 0.997384 17.285969 0.439344 0.000000 0.000000 0.000000 
